<svg width="300" height="200" viewBox="0 0 300 200" fill="none" xmlns="http://www.w3.org/2000/svg">
<path d="M80 200L90 190H95L100 185H110L125 170H135L145 160V150L155 140M76 200L90 186H95L98 183H108L123 168H133L143 158V148L153 138M72 200L88 184H93L96 181H106L121 166H131L141 156V146L151 136M68 200L86 182H91L94 179H104L119 164H129L139 154V144L149 134M64 200L84 180H89L92 177H102L117 162H127L137 152V142L147 132M56 200L81 175H100L115 160H125L135 150V140L145 130M48 200L75 173H98L109 162V146L121 134H137L143 128M44 200L77 167H85L89 171H96L107 160V144L119 132H131M94 169L105 158V142L117 130H137L141 126" stroke="black"/>
<path d="M40 200L75 165H87L89 167H92L103 156V140L115 128H135L139 124M36 200L73 163H92L101 154V138L113 126H133M32 200L71 161V142L80 133H96H102L111 124H135M28 200L69 159V140L78 131H100L109 122H137M24 200L67 157V138L76 129H98L107 120H135M20 200L65 155V136L74 127H96M16 200L61 155V136.051L72 125H94M12 200L57 155V136L70 123H92M90 121H68L53 136V155L8 200M4 200L49 155M0 200L45 155" stroke="black"/>
<path d="M200 185.706V190L202 192V200M198 200V192L196 190M196 190V181M196 190L192 186V177M204 200V192L208 188V177M190 175V186L184 192V200M188 173V184L182 190V194L176 200M172 200L180 192V188L186 182V171M168 200L178 190V186L184 180V169M186 200V194L191 189M193 191L196 194V200M188 200V196L191 193M190 200V198L193 195M210 175L212 177V188L206 194V200M212 173L214 175V190L208 196V200M214 171L216 173V200M216 169L218 171V192L220 194V200M218 167L220 169V190L224 194V200M220 165L222 167V188L228 194V200M222 163L224 165V186L232 194V200M224 161L226 163V184L236 194V200M226 159L228 161V182L240 194V200M228 157L230 160V180L244 194V200" stroke="black"/>
<path d="M200 160L140 100L200 40L260 100L200 160Z" stroke="black"/>
<path d="M200 185L115 100L200 15L285 100L200 185Z" stroke="black"/>
<path d="M244 141L252 149V173L260 181V200M246 139L254 147V171L262 179V200M248 137L256 145V153L258 155V171L264 177V200M250 135L260 145V169L266 175V200M252 133L262 143V167L268 173V200M254 131L264 141V165L270 171V200M256 129L266 139V159L272 165V196L276 200M258 127L268 137V157L274 163V194L280 200M260 125L270 135V155L276 161V192L284 200" stroke="black"/>
<path d="M265 80H273L281 72V48L289 40H300M263 78H271L279 70V46L287 38H300M261 76H269L277 68V44L285 36H300M259 74H267L275 66V42L283 34H300M257 72H265L273 64V40L281 32H300M255 70H263L271 62V38L277 32M253 68H261L269 60V36L273 32M251 66H259L267 58V34L271 30H292L300 22M249 64H257L265 56V32L269 28H290L300 18M280 26H288L298 16M278 24H286L296 14H300M276 22H284L294 12H300" stroke="black"/>
<path d="M247 62L251 58V32L261 22H272L274 20H282L292 10H300M249 56V30L261 18H280L290 8H300M247 58V28L259 16H278L288 6H300M245 60V44M300 4H286L276 14H257L245 26V44M245 44L239 38V26L254 11V0M237 52L241 48V44L235 38V26L252 9V0M235 50L237 48V44L231 38V26L250 7V0M233 48V44L227 38V26L248 5V0M223 38V26L246 3V0" stroke="black"/>
<path d="M262 123L289 150V200M264 121L291 148H300M266 119L293 146H300M268 117L295 144H300M270 115L297 142H300M272 113L297 138H300M274 111L297 134H300M276 109L297 130H300M278 107L297 126H300M280 105L297 122H300M282 103L297 118H300M284 101L297 114H300" stroke="black"/>
</svg>
